<svg width="256" height="298" viewBox="0 0 256 298" fill="none" xmlns="http://www.w3.org/2000/svg">
<path d="M89.3421 181.961C89.3421 181.961 134.266 177.054 158.671 159.145C197.79 130.438 128.921 63.6447 128.921 63.6447H128.105C128.105 63.6447 128.105 131.645 89.3421 181.961ZM84.8553 33.8553C91.8026 15.0921 107.711 0 128.513 0C150.132 0 165.237 14.2763 172.158 33.8553L252.132 255.789C254.566 262.316 255.395 268.039 255.395 270.895C255.395 286.803 242.329 297.816 227.25 297.816C210.105 297.816 176.237 288.434 172.158 276.197C172.158 276.197 194.167 251.181 185.224 238.25C160.028 201.82 71.8026 238.25 71.8026 238.25L59.5658 276.197C55.4868 288.842 46.9079 297.816 30.1842 297.816C13.8684 297.816 0 285.579 0 269.263C0 262.737 2.03947 257.842 2.85526 255.789L84.8553 33.8553Z" fill="black"/>
</svg>
