<svg width="400" height="400" viewBox="0 0 400 400" fill="none" xmlns="http://www.w3.org/2000/svg">
<path d="M161.342 193.961C161.342 193.961 206.266 189.054 230.671 171.145C269.79 142.438 200.921 75.6447 200.921 75.6447H200.105C200.105 75.6447 200.105 143.645 161.342 193.961ZM156.855 45.8553C163.803 27.0921 179.711 12 200.513 12C222.132 12 237.237 26.2763 244.158 45.8553L324.132 267.789C326.566 274.316 327.395 280.039 327.395 282.895C327.395 298.803 314.329 309.816 299.25 309.816C282.105 309.816 248.237 300.434 244.158 288.197C244.158 288.197 266.167 263.181 257.224 250.25C232.028 213.82 143.803 250.25 143.803 250.25L131.566 288.197C127.487 300.842 118.908 309.816 102.184 309.816C85.8684 309.816 72 297.579 72 281.263C72 274.737 74.0395 269.842 74.8553 267.789L156.855 45.8553Z" fill="white"/>
<path d="M110.094 370.859L102.969 371.938C102.469 370.344 101.969 368.766 101.469 367.203C100.969 365.609 100.484 364.016 100.016 362.422L88.4844 362.844L87.0312 369.078H79.8125C80.25 363.766 80.7031 358.484 81.1719 353.234C81.6406 347.984 82.0938 342.719 82.5312 337.438C84.7812 337.062 87.0156 336.75 89.2344 336.5C91.4844 336.25 93.75 336.125 96.0312 336.125C98.8125 336.125 101.594 336.172 104.375 336.266C104.875 339.516 105.359 342.766 105.828 346.016C106.328 349.234 106.844 352.469 107.375 355.719C107.75 358.281 108.156 360.812 108.594 363.312C109.062 365.812 109.562 368.328 110.094 370.859ZM98.375 356.047C98.3438 355.766 98.2656 355.25 98.1406 354.5C98.0156 353.719 97.875 352.906 97.7188 352.062C97.5625 351.188 97.375 350.406 97.1562 349.719C96.9688 349 96.7812 348.578 96.5938 348.453C96.5312 348.422 96.375 348.391 96.125 348.359C95.9062 348.328 95.6562 348.297 95.375 348.266C95.125 348.234 94.875 348.219 94.625 348.219C94.375 348.219 94.2031 348.219 94.1094 348.219C93.9531 348.219 93.7344 348.219 93.4531 348.219C93.2031 348.219 92.9219 348.234 92.6094 348.266C92.3281 348.266 92.0469 348.297 91.7656 348.359C91.5156 348.422 91.3438 348.5 91.25 348.594C91.1875 348.625 91.1094 348.828 91.0156 349.203C90.9219 349.578 90.7969 350.047 90.6406 350.609C90.5156 351.141 90.375 351.719 90.2188 352.344C90.0938 352.969 89.9688 353.562 89.8438 354.125C89.7188 354.688 89.6094 355.172 89.5156 355.578C89.4531 355.984 89.4062 356.219 89.375 356.281L98.375 356.047ZM151.438 355.906C151.438 358.656 151.422 361.375 151.391 364.062C151.391 366.719 151.375 369.422 151.344 372.172C149.406 372.078 147.484 372.031 145.578 372.031C144.641 372.031 143.688 372.078 142.719 372.172C141.781 372.266 140.844 372.391 139.906 372.547C138.719 369.953 137.531 367.391 136.344 364.859C135.156 362.297 133.969 359.719 132.781 357.125C131.906 355.219 131.078 353.312 130.297 351.406C129.516 349.5 128.734 347.578 127.953 345.641C127.672 349.859 127.375 354.062 127.062 358.25C126.781 362.406 126.547 366.594 126.359 370.812L116.234 370.531C116.078 364.531 115.938 358.562 115.812 352.625C115.688 346.688 115.469 340.719 115.156 334.719L133.484 334.625C134.109 336.188 134.688 337.766 135.219 339.359C135.781 340.922 136.312 342.516 136.812 344.141C137.531 346.609 138.344 349.062 139.25 351.5C140.156 353.906 141.062 356.328 141.969 358.766C141.938 354.859 141.859 350.969 141.734 347.094C141.641 343.219 141.562 339.312 141.5 335.375L150.969 336.5C151.094 339.75 151.203 342.984 151.297 346.203C151.391 349.422 151.438 352.656 151.438 355.906ZM185.469 343.719V347L176.422 347.469C176.297 349.281 176.203 351.078 176.141 352.859C176.078 354.641 176.047 356.422 176.047 358.203C176.047 360.391 175.984 362.578 175.859 364.766C175.766 366.922 175.641 369.078 175.484 371.234C174.359 371.297 173.234 371.344 172.109 371.375C170.984 371.438 169.859 371.469 168.734 371.469C168.328 371.469 167.922 371.453 167.516 371.422C167.141 371.422 166.766 371.422 166.391 371.422C166.453 369.516 166.5 367.625 166.531 365.75C166.594 363.844 166.625 361.953 166.625 360.078C166.625 358.203 166.578 356.328 166.484 354.453C166.391 352.547 166.281 350.641 166.156 348.734C165.25 348.766 164.328 348.797 163.391 348.828C162.484 348.859 161.562 348.875 160.625 348.875C160.094 348.875 159.562 348.875 159.031 348.875C158.531 348.875 158.016 348.859 157.484 348.828C157.391 346.516 157.328 344.219 157.297 341.938C157.266 339.656 157.234 337.375 157.203 335.094C161.891 335.188 166.547 335.328 171.172 335.516C175.797 335.672 180.438 335.812 185.094 335.938C185.219 337.281 185.312 338.594 185.375 339.875C185.438 341.125 185.469 342.406 185.469 343.719ZM208.953 336.594C208.797 338.5 208.734 340.406 208.766 342.312C208.797 344.188 208.781 346.062 208.719 347.938L203.516 347.75C203.484 348.844 203.453 349.922 203.422 350.984C203.422 352.047 203.422 353.125 203.422 354.219C203.422 355.531 203.422 356.828 203.422 358.109C203.453 359.359 203.484 360.641 203.516 361.953L208.297 362.047C208.234 362.953 208.203 363.875 208.203 364.812C208.203 365.75 208.203 366.688 208.203 367.625C208.203 368.406 208.219 369.188 208.25 369.969C208.312 370.75 208.422 371.516 208.578 372.266L191.75 372.547C191.75 371.016 191.734 369.516 191.703 368.047C191.672 366.547 191.609 365.031 191.516 363.5L194.562 363.453C194.406 360.516 194.219 357.609 194 354.734C193.812 351.859 193.609 348.969 193.391 346.062L188.938 345.5C188.875 344.188 188.812 342.891 188.75 341.609C188.719 340.297 188.672 338.984 188.609 337.672C192.016 337.547 195.391 337.406 198.734 337.25C202.109 337.062 205.516 336.844 208.953 336.594ZM244.953 359.891L244.906 367.203C243.469 367.484 242.047 367.75 240.641 368C239.234 368.25 237.812 368.469 236.375 368.656C234.875 368.844 233.375 369.016 231.875 369.172C230.375 369.328 228.875 369.406 227.375 369.406C226.938 369.406 226.297 369.391 225.453 369.359C224.609 369.328 223.734 369.266 222.828 369.172C221.922 369.078 221.062 368.969 220.25 368.844C219.438 368.688 218.844 368.5 218.469 368.281C218.125 368.062 217.797 367.812 217.484 367.531C217.172 367.219 216.891 366.906 216.641 366.594C215.984 365.781 215.438 364.891 215 363.922C214.562 362.953 214.219 361.953 213.969 360.922C213.719 359.891 213.531 358.844 213.406 357.781C213.312 356.719 213.266 355.672 213.266 354.641C213.266 353.391 213.328 352.094 213.453 350.75C213.609 349.406 213.844 348.078 214.156 346.766C214.469 345.453 214.875 344.188 215.375 342.969C215.906 341.75 216.547 340.625 217.297 339.594C217.516 339.312 217.797 338.969 218.141 338.562C218.484 338.156 218.828 337.859 219.172 337.672C220.016 337.203 220.953 336.812 221.984 336.5C223.047 336.188 224.141 335.953 225.266 335.797C226.391 335.609 227.5 335.484 228.594 335.422C229.719 335.328 230.75 335.281 231.688 335.281C233.469 335.281 235.25 335.391 237.031 335.609C238.812 335.797 240.547 336.141 242.234 336.641C242.172 337.484 242.125 338.344 242.094 339.219C242.062 340.062 242.047 340.906 242.047 341.75C242.047 343.781 242.094 345.828 242.188 347.891C240.781 347.359 239.312 346.984 237.781 346.766C236.25 346.516 234.734 346.391 233.234 346.391C232.922 346.391 232.469 346.422 231.875 346.484C231.281 346.516 230.609 346.578 229.859 346.672C229.109 346.734 228.328 346.828 227.516 346.953C226.734 347.078 226 347.234 225.312 347.422C224.625 347.609 224.016 347.828 223.484 348.078C222.984 348.328 222.656 348.594 222.5 348.875C222.375 349.125 222.266 349.484 222.172 349.953C222.109 350.391 222.047 350.859 221.984 351.359C221.953 351.859 221.922 352.344 221.891 352.812C221.891 353.281 221.891 353.656 221.891 353.938C221.891 354.219 221.922 354.781 221.984 355.625C222.047 356.469 222.125 357.375 222.219 358.344C222.312 359.281 222.422 360.141 222.547 360.922C222.703 361.703 222.859 362.156 223.016 362.281C223.172 362.375 223.422 362.438 223.766 362.469C224.141 362.469 224.391 362.469 224.516 362.469C226.047 362.469 227.688 362.391 229.438 362.234C231.188 362.078 232.953 361.875 234.734 361.625C236.547 361.344 238.328 361.062 240.078 360.781C241.828 360.469 243.453 360.172 244.953 359.891ZM285.641 370.766C284.141 371.109 282.641 371.422 281.141 371.703C279.672 372.016 278.172 372.297 276.641 372.547C274.766 369.703 272.906 366.906 271.062 364.156C269.25 361.375 267.359 358.609 265.391 355.859L260.375 360.734L259.906 371.141C259.188 371.109 258.469 371.078 257.75 371.047C257.062 371.047 256.375 371.047 255.688 371.047C255.031 371.047 254.391 371.062 253.766 371.094C253.141 371.125 252.516 371.188 251.891 371.281C251.516 368.406 251.156 365.547 250.812 362.703C250.5 359.828 250.219 356.938 249.969 354.031C249.719 351.125 249.516 348.234 249.359 345.359C249.234 342.453 249.109 339.547 248.984 336.641C251.328 336.703 253.641 336.75 255.922 336.781C258.234 336.781 260.562 336.812 262.906 336.875L262.625 347.75C264.312 346 265.906 344.219 267.406 342.406C268.906 340.594 270.453 338.75 272.047 336.875C273.547 336.781 275.062 336.688 276.594 336.594C278.125 336.469 279.641 336.344 281.141 336.219L280.953 339.688L271.016 350.047C273.391 353.578 275.781 357.047 278.188 360.453C280.625 363.859 283.109 367.297 285.641 370.766ZM322.344 362.75C322.344 364.25 321.984 365.469 321.266 366.406C320.547 367.312 319.531 368.047 318.219 368.609C317.125 369.078 315.75 369.453 314.094 369.734C312.438 369.984 310.719 370.172 308.938 370.297C307.156 370.391 305.406 370.453 303.688 370.484C301.969 370.516 300.531 370.531 299.375 370.531C297.406 370.531 295.453 370.5 293.516 370.438C291.609 370.375 289.672 370.281 287.703 370.156C287.797 366.969 287.703 363.812 287.422 360.688C289.766 360.75 292.094 360.812 294.406 360.875C296.75 360.906 299.094 360.953 301.438 361.016C302.344 361.047 303.25 361.078 304.156 361.109C305.094 361.141 306.031 361.156 306.969 361.156C307.125 361.156 307.359 361.156 307.672 361.156C307.984 361.156 308.312 361.141 308.656 361.109C309 361.078 309.312 361.031 309.594 360.969C309.906 360.906 310.141 360.812 310.297 360.688C310.422 360.562 310.5 360.391 310.531 360.172C310.562 359.922 310.578 359.703 310.578 359.516C310.578 359.172 310.531 358.766 310.438 358.297C310.344 357.797 310.203 357.391 310.016 357.078C309.984 357.047 309.875 357.016 309.688 356.984C309.531 356.953 309.344 356.938 309.125 356.938C308.906 356.906 308.703 356.891 308.516 356.891C308.328 356.859 308.219 356.844 308.188 356.844C306.188 356.688 304.188 356.578 302.188 356.516C300.219 356.453 298.234 356.344 296.234 356.188C295.328 356.094 294.391 356 293.422 355.906C292.484 355.812 291.609 355.641 290.797 355.391C290.016 355.172 289.344 354.688 288.781 353.938C288.25 353.156 287.812 352.281 287.469 351.312C287.156 350.312 286.922 349.312 286.766 348.312C286.641 347.312 286.578 346.469 286.578 345.781C286.578 344.656 286.688 343.594 286.906 342.594C287.125 341.562 287.469 340.609 287.938 339.734C288.438 338.859 289.062 338.094 289.812 337.438C290.562 336.75 291.484 336.188 292.578 335.75C294.453 335.031 296.453 334.531 298.578 334.25C300.734 333.969 302.797 333.828 304.766 333.828C307.078 333.828 309.359 333.969 311.609 334.25C313.859 334.531 316.109 334.891 318.359 335.328C318.328 336.234 318.297 337.141 318.266 338.047C318.266 338.922 318.266 339.812 318.266 340.719C318.266 341.625 318.312 342.547 318.406 343.484C318.5 344.391 318.594 345.297 318.688 346.203C315.719 346.266 312.75 346.328 309.781 346.391C306.844 346.422 303.875 346.5 300.875 346.625C300.5 346.625 299.984 346.641 299.328 346.672C298.703 346.703 298.094 346.75 297.5 346.812C296.906 346.844 296.391 346.875 295.953 346.906C295.516 346.938 295.297 346.953 295.297 346.953C295.141 347.297 295.047 347.656 295.016 348.031C294.984 348.375 294.969 348.734 294.969 349.109C294.969 349.297 294.969 349.531 294.969 349.812C295 350.094 295.078 350.312 295.203 350.469C295.234 350.5 295.5 350.547 296 350.609C296.5 350.672 297.047 350.734 297.641 350.797C298.266 350.859 298.844 350.922 299.375 350.984C299.938 351.047 300.281 351.078 300.406 351.078C301.438 351.172 302.641 351.281 304.016 351.406C305.422 351.531 306.844 351.672 308.281 351.828C309.75 351.984 311.156 352.188 312.5 352.438C313.844 352.656 315.016 352.922 316.016 353.234C316.922 353.547 317.75 354.047 318.5 354.734C319.281 355.391 319.953 356.172 320.516 357.078C321.078 357.953 321.516 358.891 321.828 359.891C322.172 360.859 322.344 361.812 322.344 362.75Z" fill="white"/>
</svg>
